{
  "accessors": [
    {
      "bufferView": 2,
      "componentType": 5126,
      "count": 1395,
      "max": [
        1.3754980564117432,
        1.292701005935669,
        4.6349639892578125
      ],
      "min": [
        -1.3738789558410645,
        -1.452510952949524,
        0.19152399897575378
      ],
      "type": "VEC3"
    },
    {
      "bufferView": 2,
      "byteOffset": 16740,
      "componentType": 5126,
      "count": 1395,
      "max": [
        0.9999222159385681,
        0.9997793436050415,
        0.9993734955787659
      ],
      "min": [
        -0.9999997615814209,
        -0.9997793436050415,
        -0.9989733695983887
      ],
      "type": "VEC3"
    },
    {
      "bufferView": 1,
      "componentType": 5126,
      "count": 1395,
      "max": [
        0.9928990006446838,
        0.9897980093955994
      ],
      "min": [
        0.009368999861180782,
        0.0038999998942017555
      ],
      "type": "VEC2"
    },
    {
      "bufferView": 0,
      "componentType": 5125,
      "count": 5301,
      "type": "SCALAR"
    },
    {
      "bufferView": 2,
      "byteOffset": 33480,
      "componentType": 5126,
      "count": 162,
      "max": [
        1.1460449695587158,
        1.0386159420013428,
        4.32164192199707
      ],
      "min": [
        -1.0566190481185913,
        -1.1719870567321777,
        0.3908909857273102
      ],
      "type": "VEC3"
    },
    {
      "bufferView": 2,
      "byteOffset": 35424,
      "componentType": 5126,
      "count": 162,
      "max": [
        0.9977449774742126,
        0.9830555319786072,
        0.9993734955787659
      ],
      "min": [
        -0.9999251365661621,
        -0.9830554723739624,
        -0.6762070655822754
      ],
      "type": "VEC3"
    },
    {
      "bufferView": 1,
      "byteOffset": 11160,
      "componentType": 5126,
      "count": 162,
      "max": [
        0.9898329973220825,
        0.7804459929466248
      ],
      "min": [
        0.012919999659061432,
        0.09275499731302261
      ],
      "type": "VEC2"
    },
    {
      "bufferView": 0,
      "byteOffset": 21204,
      "componentType": 5125,
      "count": 246,
      "type": "SCALAR"
    }
  ],
  "asset": {
    "extras": {
      "author": "Warcraft-3D-Models (https://sketchfab.com/Warcraft-3D-Models)",
      "license": "CC-BY-4.0 (http://creativecommons.org/licenses/by/4.0/)",
      "source": "https://sketchfab.com/3d-models/baby-lich-world-of-warcraft-d6234caae54a468793e2b253ff1c071b",
      "title": "Baby Lich World Of Warcraft"
    },
    "generator": "Sketchfab-12.67.0",
    "version": "2.0"
  },
  "bufferViews": [
    {
      "buffer": 0,
      "byteLength": 22188,
      "name": "floatBufferViews",
      "target": 34963
    },
    {
      "buffer": 0,
      "byteLength": 12456,
      "byteOffset": 22188,
      "byteStride": 8,
      "name": "floatBufferViews",
      "target": 34962
    },
    {
      "buffer": 0,
      "byteLength": 37368,
      "byteOffset": 34644,
      "byteStride": 12,
      "name": "floatBufferViews",
      "target": 34962
    }
  ],
  "buffers": [
    {
      "byteLength": 72012,
      "uri": "scene.bin"
    }
  ],
  "images": [
    {
      "uri": "textures/creaturebabylichbabylich.m2_Geoset_000_baseColor.png"
    }
  ],
  "materials": [
    {
      "doubleSided": true,
      "name": "creaturebabylichbabylich.m2_Geoset_000",
      "pbrMetallicRoughness": {
        "baseColorTexture": {
          "index": 0
        },
        "metallicFactor": 0.0
      }
    },
    {
      "doubleSided": true,
      "name": "creaturebabylichbabylich.m2_Geoset_000_Lum",
      "pbrMetallicRoughness": {
        "baseColorTexture": {
          "index": 0
        },
        "metallicFactor": 0.0
      }
    }
  ],
  "meshes": [
    {
      "name": "Object_0",
      "primitives": [
        {
          "attributes": {
            "NORMAL": 1,
            "POSITION": 0,
            "TEXCOORD_0": 2
          },
          "indices": 3,
          "material": 0,
          "mode": 4
        }
      ]
    },
    {
      "name": "Object_1",
      "primitives": [
        {
          "attributes": {
            "NORMAL": 5,
            "POSITION": 4,
            "TEXCOORD_0": 6
          },
          "indices": 7,
          "material": 1,
          "mode": 4
        }
      ]
    }
  ],
  "nodes": [
    {
      "children": [
        1
      ],
      "matrix": [
        1.0,
        0.0,
        0.0,
        0.0,
        0.0,
        2.220446049250313e-16,
        -1.0,
        0.0,
        0.0,
        1.0,
        2.220446049250313e-16,
        0.0,
        0.0,
        0.0,
        0.0,
        1.0
      ],
      "name": "Sketchfab_model"
    },
    {
      "children": [
        2,
        3
      ],
      "name": "Baby Lich.obj.cleaner.materialmerger.gles"
    },
    {
      "mesh": 0,
      "name": "Object_2"
    },
    {
      "mesh": 1,
      "name": "Object_3"
    }
  ],
  "samplers": [
    {
      "magFilter": 9729,
      "minFilter": 9987,
      "wrapS": 10497,
      "wrapT": 10497
    }
  ],
  "scene": 0,
  "scenes": [
    {
      "name": "Sketchfab_Scene",
      "nodes": [
        0
      ]
    }
  ],
  "textures": [
    {
      "sampler": 0,
      "source": 0
    }
  ]
}
